<svg id="round_logo" xmlns="http://www.w3.org/2000/svg" viewBox="0 0 561.62 561.62">
  <circle id="circle" cx="280.81" cy="280.81" r="280.81" style="fill: #a85566; stroke-width: 0px;"/>
  <g id="text">
    <g>
      <path d="m234.07,387.57h18.08c10.75,0,14.23,5.88,14.23,11.7,0,4.87-3.54,8.98-8.79,9.61l.13.13c1.2-.19,10.18,1.96,10.18,11.07,0,8.22-6.33,12.65-15.75,12.65h-18.08v-45.15Zm2.78,20.49h15.3c7.53,0,11.45-3.79,11.45-9.3,0-6.51-5.44-8.79-11.45-8.79h-15.3v18.08Zm0,22.26h15.3c7.97,0,12.96-3.54,12.96-10.25,0-7.71-7.02-9.61-12.96-9.61h-15.3v19.86Z" style="fill: #fff; stroke-width: 0px;"/>
      <path d="m290.36,387.57l17.83,45.15h-2.97l-5.69-14.48h-21.63l-5.75,14.48h-2.97l18.15-45.15h3.03Zm8.29,28.27l-9.68-25.55h-.13l-10.05,25.55h19.86Z" style="fill: #fff; stroke-width: 0px;"/>
      <path d="m311.43,387.57h18.84c7.9,0,14.29,2.91,14.29,11.64,0,6.07-3.67,10.56-9.68,11.57v.13c6.7.76,8.35,5,8.79,9.68.44,4.68-.32,9.74,1.52,12.14h-3.1c-1.71-3.1-.69-8.28-1.2-12.65-.57-4.36-2.72-7.9-10.62-7.9h-16.06v20.55h-2.78v-45.15Zm18.84,22.2c6.58,0,11.51-3.1,11.51-10.37,0-6.83-5.44-9.42-11.51-9.42h-16.06v19.79h16.06Z" style="fill: #fff; stroke-width: 0px;"/>
    </g>
    <path d="m285.34,234.26c-9.53-18.26-8.62-36.59,2.58-51.6,13.42-17.99,39.23-27.91,61.36-23.62,16.92,3.29,28.67,14.33,33.07,31.11,3.16,12.05,1.38,24.71-5.03,35.64-7.1,12.11-19.38,21.19-33.71,24.91-1.27.43-2.81.21-4.02-.67-1.31-.94-2.08-2.5-2.08-4.18v-44.02c0-.88,0-1.96.39-3.14l2.86-7.29c.23-.64-.13-1.26-.29-1.49-.34-.49-.86-.8-1.35-.8h-23.55c-.78,0-1.21.46-1.4.73-.16.23-.5.85-.22,1.63l2.56,7.18c.31.91.67,1.99.67,3.19v141.53c0,1.19-.34,2.23-.65,3.14l-2.58,7.22c-.29.79.06,1.41.22,1.64.19.27.63.73,1.4.73h28.92c33.85,0,54.85-22.12,60.65-44.05,5.8-21.95-3.12-42.71-23.3-54.18l-3.24-1.84,2.82-2.44c21.34-18.44,30.15-44.95,23-69.18h0c-7.37-25.19-25.52-41.34-51.12-45.51-31.95-5.19-67.88,9.4-85.45,34.71-14.32,20.62-14.37,45.72-.14,70.69.38.75,10.46,18.49,10.46,18.49l.2.39c9.53,18.26,8.62,36.59-2.58,51.6-13.42,17.99-39.23,27.91-61.36,23.62-16.92-3.29-28.67-14.33-33.07-31.11-3.16-12.05-1.38-24.71,5.03-35.64,7.1-12.11,19.38-21.19,33.71-24.91,1.27-.43,2.81-.21,4.02.67,1.31.94,2.08,2.5,2.08,4.18v44.02c0,.88,0,1.96-.39,3.14l-2.86,7.29c-.23.64.13,1.26.29,1.49.34.49.86.8,1.35.8h23.55c.78,0,1.21-.46,1.4-.73.16-.23.5-.85.22-1.63l-2.56-7.18c-.31-.91-.67-1.99-.67-3.19v-141.53c0-1.19.34-2.23.65-3.14l2.58-7.22c.29-.79-.06-1.41-.22-1.64-.19-.27-.63-.73-1.4-.73h-28.92c-33.85,0-54.85,22.12-60.65,44.05-5.8,21.95,3.12,42.71,23.3,54.18l3.24,1.84-2.82,2.44c-21.34,18.44-30.15,44.95-23,69.18h0c7.37,25.19,25.52,41.34,51.12,45.51,31.95,5.19,67.88-9.4,85.45-34.71,14.32-20.62,14.37-45.72.14-70.69m-115.16-47.92c-2.8-9.6-.57-19.96,6.12-28.42,7.6-9.6,19.58-15.18,32.41-15.18.75,0,1.51.02,2.26.06l.51.07c2.34.59,4.04,2.74,4.04,5.11v57.51l-1.89.55c-10.62,3.11-21.06,2.3-29.42-2.29-6.9-3.79-11.89-9.98-14.03-17.42Zm195.89,115.41c-7.6,9.6-19.58,15.18-32.41,15.18-.75,0-1.51-.02-2.26-.06l-.51-.07c-2.34-.59-4.04-2.74-4.04-5.11v-57.51l1.89-.55c10.62-3.11,21.06-2.3,29.42,2.29,6.9,3.79,11.89,9.98,14.03,17.42,2.8,9.6.57,19.96-6.12,28.42Z" style="fill: #fff; stroke-width: 0px;"/>
    <circle cx="129.1" cy="147.05" r="18.16" style="fill: #fff; stroke-width: 0px;"/>
    <circle cx="432.51" cy="352.96" r="18.16" style="fill: #fff; stroke-width: 0px;"/>
  </g>
</svg>